<?xml version="1.0" encoding="utf-8"?>
<!-- Generator: Adobe Illustrator 24.3.0, SVG Export Plug-In . SVG Version: 6.00 Build 0)  -->
<svg version="1.1" id="Capa_1" xmlns="http://www.w3.org/2000/svg" xmlns:xlink="http://www.w3.org/1999/xlink" x="0px" y="0px"
	 viewBox="0 0 267.8 225.5" style="enable-background:new 0 0 267.8 225.5;" xml:space="preserve">
<path d="M253.8,67.6c-3.4-2.3-8.1-1.5-10.4,2L228.1,92c-4-18.5-13.2-35.5-26.9-49.2C182.5,24,157.5,13.7,131,13.7
	c-26.5,0-51.5,10.3-70.3,29.1C22,81.5,22,144.6,60.7,183.3c19.4,19.4,44.8,29.1,70.3,29.1s50.9-9.7,70.3-29.1
	c2.9-2.9,2.9-7.7,0-10.6s-7.7-2.9-10.6,0c-32.9,32.9-86.4,32.9-119.3,0s-32.9-86.4,0-119.3c15.9-15.9,37.1-24.7,59.7-24.7
	s43.7,8.8,59.7,24.7c12.3,12.3,20.3,27.8,23.3,44.5l-26.6-18.2c-3.4-2.3-8.1-1.5-10.4,2c-2.3,3.4-1.5,8.1,2,10.4l39.7,27.1
	c0,0,0,0,0,0c0.6,0.4,1.3,0.7,2,1c0,0,0,0,0.1,0c0.1,0,0.2,0.1,0.4,0.1c0.6,0.2,1.2,0.2,1.8,0.2c2.4,0,4.8-1.1,6.2-3.3L255.8,78
	C258.1,74.6,257.3,69.9,253.8,67.6z"/>
</svg>
